<svg xmlns="http://www.w3.org/2000/svg" viewBox="0 0 800 560" role="img" aria-label="Blood pressure monitoring illustration">
  <defs>
    <linearGradient id="bg" x1="0" y1="0" x2="1" y2="1">
      <stop offset="0%" stop-color="#ecfccb"/>
      <stop offset="100%" stop-color="#eff6ff"/>
    </linearGradient>
    <linearGradient id="screen" x1="0" y1="0" x2="1" y2="1">
      <stop offset="0%" stop-color="#0f172a"/>
      <stop offset="100%" stop-color="#334155"/>
    </linearGradient>
  </defs>
  <rect width="800" height="560" rx="40" fill="url(#bg)"/>
  <circle cx="130" cy="114" r="62" fill="#ffffff" opacity="0.55"/>
  <circle cx="676" cy="128" r="58" fill="#ffffff" opacity="0.5"/>
  <rect x="164" y="130" width="472" height="300" rx="32" fill="#ffffff" opacity="0.95"/>
  <rect x="240" y="182" width="228" height="150" rx="24" fill="url(#screen)"/>
  <rect x="260" y="208" width="104" height="18" rx="9" fill="#22c55e"/>
  <path d="M266 292h28l16-46 18 74 18-40 14 12h34" stroke="#22c55e" stroke-width="10" stroke-linecap="round" stroke-linejoin="round" fill="none"/>
  <rect x="486" y="194" width="86" height="86" rx="22" fill="#dbeafe"/>
  <path d="M529 212c-14 16-23 26-23 39 0 12 10 22 23 22s23-10 23-22c0-13-9-23-23-39z" fill="#2563eb"/>
  <path d="M102 452c86-24 158-28 240-14 82 14 156 38 244 28 76-8 130-30 186-60" fill="none" stroke="#86efac" stroke-width="18" stroke-linecap="round" opacity="0.55"/>
</svg>
