<svg xmlns="http://www.w3.org/2000/svg" viewBox="0 0 800 560" role="img" aria-label="First aid kit illustration">
  <defs>
    <linearGradient id="bg" x1="0" y1="0" x2="1" y2="1">
      <stop offset="0%" stop-color="#eff6ff"/>
      <stop offset="100%" stop-color="#f0fdf4"/>
    </linearGradient>
    <linearGradient id="kit" x1="0" y1="0" x2="1" y2="1">
      <stop offset="0%" stop-color="#ef4444"/>
      <stop offset="100%" stop-color="#b91c1c"/>
    </linearGradient>
  </defs>
  <rect width="800" height="560" rx="40" fill="url(#bg)"/>
  <circle cx="126" cy="120" r="60" fill="#dbeafe"/>
  <circle cx="670" cy="112" r="72" fill="#dcfce7"/>
  <rect x="170" y="128" width="460" height="304" rx="32" fill="#ffffff" opacity="0.95"/>
  <rect x="230" y="180" width="340" height="168" rx="26" fill="url(#kit)"/>
  <rect x="360" y="154" width="80" height="42" rx="12" fill="#fecaca"/>
  <path d="M400 154v42M379 175h42" stroke="#ffffff" stroke-width="18" stroke-linecap="round"/>
  <rect x="254" y="226" width="116" height="16" rx="8" fill="#fecaca" opacity="0.9"/>
  <rect x="254" y="258" width="164" height="16" rx="8" fill="#fecaca" opacity="0.75"/>
  <rect x="254" y="290" width="130" height="16" rx="8" fill="#fecaca" opacity="0.6"/>
  <path d="M102 452c82-28 156-30 222-14 92 22 150 36 222 16 66-18 128-34 186-68" fill="none" stroke="#93c5fd" stroke-width="18" stroke-linecap="round" opacity="0.55"/>
</svg>
