<svg xmlns="http://www.w3.org/2000/svg" viewBox="0 0 800 560" role="img" aria-label="Allopathic medicines illustration">
  <defs>
    <linearGradient id="bg" x1="0" y1="0" x2="1" y2="1">
      <stop offset="0%" stop-color="#dcfce7"/>
      <stop offset="100%" stop-color="#ecfeff"/>
    </linearGradient>
    <linearGradient id="card" x1="0" y1="0" x2="1" y2="1">
      <stop offset="0%" stop-color="#16a34a"/>
      <stop offset="100%" stop-color="#0f766e"/>
    </linearGradient>
  </defs>
  <rect width="800" height="560" rx="40" fill="url(#bg)"/>
  <circle cx="136" cy="120" r="72" fill="#ffffff" opacity="0.65"/>
  <circle cx="678" cy="118" r="60" fill="#ffffff" opacity="0.45"/>
  <rect x="176" y="122" width="448" height="316" rx="32" fill="#ffffff" opacity="0.95"/>
  <rect x="248" y="168" width="128" height="128" rx="34" fill="url(#card)"/>
  <path d="M312 186v92M266 232h92" stroke="#ffffff" stroke-width="22" stroke-linecap="round"/>
  <rect x="408" y="172" width="138" height="18" rx="9" fill="#bbf7d0"/>
  <rect x="408" y="206" width="124" height="18" rx="9" fill="#d1fae5"/>
  <rect x="408" y="240" width="168" height="18" rx="9" fill="#ccfbf1"/>
  <rect x="248" y="324" width="260" height="18" rx="9" fill="#e2e8f0"/>
  <rect x="248" y="356" width="176" height="18" rx="9" fill="#e2e8f0"/>
  <path d="M104 456c98-40 188-42 268-8 90 38 174 46 302 14 54-14 112-34 170-66" fill="none" stroke="#86efac" stroke-width="18" stroke-linecap="round" opacity="0.55"/>
</svg>
